<svg width="136" height="36" viewBox="0 0 136 36" fill="none" xmlns="http://www.w3.org/2000/svg">
<path d="M1.72193 10.8744C6.32513 7.41037 11.8681 5.3961 17.4579 4.16865C20.2712 3.58183 23.1285 3.24882 25.9946 3.08739C28.8648 2.99703 31.7419 3.0021 34.6071 3.28536C40.3404 3.77674 46.0139 4.97273 51.5599 6.59207C57.1158 8.20735 62.5093 10.3161 67.9247 12.5669C73.3411 14.7995 78.7994 17.1071 84.4918 18.9691C90.1873 20.8088 96.1259 22.2149 102.271 22.5104C105.337 22.6789 108.447 22.5195 111.531 22.0535C114.627 21.5367 117.685 20.692 120.585 19.4006C126.381 16.8909 131.707 12.643 135.086 6.82863C135.919 5.39508 135.455 3.54426 134.048 2.69449C132.64 1.84573 130.824 2.31884 129.99 3.75341C129.976 3.77777 129.962 3.80213 129.949 3.8265L129.937 3.84884C127.468 8.42462 123.278 12.107 118.39 14.4045C115.957 15.5853 113.339 16.3975 110.676 16.9325C107.981 17.4249 105.219 17.6635 102.432 17.5975C96.8544 17.5112 91.2377 16.3893 85.7326 14.7994C80.2145 13.1872 74.7732 11.0937 69.2681 9.02362C58.3087 4.77983 46.7095 1.26195 34.7884 0.612179C31.8136 0.414204 28.8229 0.501526 25.8471 0.692394C22.8723 0.953318 19.9105 1.39596 17.0035 2.09953C11.2283 3.56354 5.54181 5.82859 0.792109 9.63379C0.460248 9.89979 0.402449 10.3902 0.663553 10.7293C0.92067 11.0612 1.39007 11.1232 1.72193 10.8744Z" fill="white"/>
<path d="M10.1123 11.899C13.0662 10.3192 16.3161 9.34151 19.6437 8.86231C22.9692 8.35468 26.3646 8.29376 29.749 8.44402C33.1393 8.63387 36.5446 8.91104 39.7546 9.6999C41.3611 10.0928 42.9247 10.6096 44.3797 11.2979C45.8298 11.9771 47.1522 12.8706 48.37 13.9264C50.7808 16.0148 52.5397 18.8048 52.8925 21.7967C53.0988 23.2658 52.8955 24.7349 52.3235 25.939C51.7475 27.1411 50.8316 27.9645 49.6676 28.2853C47.1562 28.997 43.5097 28.2081 42.2819 26.4669C41.958 26.004 41.8833 25.7085 41.8953 25.3633C41.9182 25.0303 42.0776 24.6374 42.3776 24.2841C42.6726 23.9308 43.0952 23.6445 43.5087 23.5135C43.9273 23.3795 44.304 23.3887 44.6269 23.5105C45.7829 23.946 47.0665 23.345 47.494 22.1673C47.9216 20.9896 47.3316 19.6819 46.1756 19.2464C46.1457 19.2352 46.1148 19.2241 46.0839 19.2139L46.0052 19.1885C44.6857 18.7621 43.2506 18.8586 42.0537 19.3165C40.8469 19.7733 39.8204 20.547 39.0391 21.5592C38.2627 22.5643 37.7196 23.8729 37.7086 25.3004C37.6757 26.7238 38.3176 28.1381 39.059 29.0427C40.6306 30.9828 42.7414 31.7981 44.7016 32.2001C46.7008 32.5687 48.6959 32.5595 50.7539 31.9179C51.8182 31.5768 52.8397 30.9747 53.6599 30.1838C54.4861 29.396 55.1109 28.4416 55.5424 27.4457C56.4005 25.4527 56.556 23.281 56.2151 21.2942C55.9022 19.3093 55.1348 17.4311 54.0914 15.7945C53.04 14.1589 51.7255 12.7568 50.2765 11.5731C48.8334 10.4035 47.223 9.40344 45.5168 8.67652C43.8206 7.94756 42.0716 7.445 40.3187 7.08255C36.7958 6.35664 33.2928 6.20842 29.8117 6.13836C26.3187 6.10994 22.7988 6.29776 19.3297 6.95463C15.8646 7.58308 12.4503 8.73844 9.36292 10.5375C8.99618 10.7507 8.86862 11.2279 9.0789 11.6015C9.28419 11.967 9.73465 12.099 10.0974 11.9061L10.1123 11.899Z" fill="white"/>
<path d="M54.6917 12.2136C61.7465 16.895 66.3397 24.4902 67.437 32.059C67.7559 34.2611 69.767 35.7819 71.9286 35.456C74.0901 35.1301 75.583 33.0823 75.2641 30.8802C75.2153 30.5442 75.1276 30.2244 75.005 29.9249L74.9462 29.7848C71.1542 20.6058 63.7307 13.771 55.3604 10.8105C54.9588 10.6684 54.5193 10.8847 54.3798 11.2948C54.2612 11.6431 54.3967 12.0177 54.6867 12.2106L54.6917 12.2136Z" fill="white"/>
<path d="M86.2827 11.2808C95.0586 14.8555 105.829 13.3641 113.625 7.01159L113.64 7.00042C114.569 6.24405 114.719 4.86329 113.976 3.91707C113.232 2.97085 111.878 2.81754 110.949 3.57391C110.889 3.62265 110.832 3.67544 110.779 3.72925C104.853 9.7132 95.3068 12.3163 86.784 9.80762C86.3784 9.6868 85.9529 9.92336 85.8333 10.3366C85.7197 10.7234 85.923 11.1315 86.2827 11.2808Z" fill="white"/>
</svg>
