<svg width="136" height="36" viewBox="0 0 136 36" fill="none" xmlns="http://www.w3.org/2000/svg">
<path d="M134.278 10.8744C129.675 7.41037 124.132 5.3961 118.542 4.16865C115.729 3.58183 112.872 3.24882 110.005 3.08739C107.135 2.99703 104.258 3.0021 101.393 3.28536C95.6596 3.77674 89.9861 4.97273 84.4401 6.59207C78.8842 8.20735 73.4907 10.3161 68.0753 12.5669C62.6589 14.7995 57.2006 17.1071 51.5081 18.9691C45.8127 20.8088 39.8741 22.2149 33.7292 22.5104C30.6627 22.6789 27.5534 22.5195 24.469 22.0535C21.3726 21.5367 18.315 20.692 15.415 19.4006C9.6189 16.8909 4.29318 12.643 0.913788 6.82863C0.0806427 5.39508 0.545044 3.54426 1.95221 2.69449C3.36038 1.84573 5.17618 2.31884 6.01031 3.75341C6.02426 3.77777 6.03819 3.80213 6.05115 3.8265L6.06311 3.84884C8.53163 8.42462 12.7223 12.107 17.6105 14.4045C20.0431 15.5853 22.6612 16.3975 25.324 16.9325C28.0188 17.4249 30.7813 17.6635 33.5677 17.5975C39.1456 17.5112 44.7623 16.3893 50.2674 14.7994C55.7855 13.1872 61.2268 11.0937 66.7319 9.02362C77.6913 4.77983 89.2905 1.26195 101.212 0.612179C104.186 0.414204 107.177 0.501526 110.153 0.692394C113.128 0.953318 116.09 1.39596 118.997 2.09953C124.772 3.56354 130.458 5.82859 135.208 9.63379C135.54 9.89979 135.598 10.3902 135.336 10.7293C135.079 11.0612 134.61 11.1232 134.278 10.8744Z" fill="white"/>
<path d="M125.888 11.899C122.934 10.3192 119.684 9.34151 116.356 8.86231C113.031 8.35468 109.635 8.29376 106.251 8.44402C102.861 8.63387 99.4554 8.91104 96.2454 9.6999C94.6389 10.0928 93.0753 10.6096 91.6203 11.2979C90.1702 11.9771 88.8478 12.8706 87.63 13.9264C85.2192 16.0148 83.4603 18.8048 83.1075 21.7967C82.9012 23.2658 83.1045 24.7349 83.6765 25.939C84.2525 27.1411 85.1684 27.9645 86.3324 28.2853C88.8438 28.997 92.4903 28.2081 93.7181 26.4669C94.042 26.004 94.1167 25.7085 94.1047 25.3633C94.0818 25.0303 93.9224 24.6374 93.6224 24.2841C93.3274 23.9308 92.9048 23.6445 92.4913 23.5135C92.0727 23.3795 91.696 23.3887 91.3731 23.5105C90.2171 23.946 88.9335 23.345 88.506 22.1673C88.0784 20.9896 88.6684 19.6819 89.8244 19.2464C89.8543 19.2352 89.8852 19.2241 89.9161 19.2139L89.9948 19.1885C91.3143 18.7621 92.7494 18.8586 93.9463 19.3165C95.1531 19.7733 96.1796 20.547 96.9609 21.5592C97.7373 22.5643 98.2804 23.8729 98.2914 25.3004C98.3243 26.7238 97.6824 28.1381 96.941 29.0427C95.3694 30.9828 93.2586 31.7981 91.2984 32.2001C89.2992 32.5687 87.3041 32.5595 85.2461 31.9179C84.1818 31.5768 83.1603 30.9747 82.3401 30.1838C81.5139 29.396 80.8891 28.4416 80.4576 27.4457C79.5995 25.4527 79.444 23.281 79.7849 21.2942C80.0978 19.3093 80.8652 17.4311 81.9086 15.7945C82.96 14.1589 84.2745 12.7568 85.7235 11.5731C87.1666 10.4035 88.777 9.40344 90.4832 8.67652C92.1794 7.94756 93.9284 7.445 95.6813 7.08255C99.2042 6.35664 102.707 6.20842 106.188 6.13836C109.681 6.10994 113.201 6.29776 116.67 6.95463C120.135 7.58308 123.55 8.73844 126.637 10.5375C127.004 10.7507 127.131 11.2279 126.921 11.6015C126.716 11.967 126.265 12.099 125.903 11.9061L125.888 11.899Z" fill="white"/>
<path d="M81.3083 12.2136C74.2535 16.895 69.6603 24.4902 68.563 32.059C68.2441 34.2611 66.233 35.7819 64.0714 35.456C61.9099 35.1301 60.417 33.0823 60.7359 30.8802C60.7847 30.5442 60.8724 30.2244 60.995 29.9249L61.0538 29.7848C64.8458 20.6058 72.2693 13.771 80.6396 10.8105C81.0412 10.6684 81.4807 10.8847 81.6202 11.2948C81.7388 11.6431 81.6033 12.0177 81.3133 12.2106L81.3083 12.2136Z" fill="white"/>
<path d="M49.7173 11.2808C40.9414 14.8555 30.1713 13.3641 22.3751 7.01159L22.3601 7.00042C21.4313 6.24405 21.2809 4.86329 22.0243 3.91707C22.7678 2.97085 24.1221 2.81754 25.0509 3.57391C25.1107 3.62265 25.1685 3.67544 25.2213 3.72925C31.147 9.7132 40.6932 12.3163 49.216 9.80762C49.6216 9.6868 50.0471 9.92336 50.1667 10.3366C50.2803 10.7234 50.077 11.1315 49.7173 11.2808Z" fill="white"/>
</svg>
