<svg width="18" height="14" viewBox="0 0 18 14" fill="none" xmlns="http://www.w3.org/2000/svg">
<path d="M9.20366 0.333252C9.64866 0.335752 10.762 0.346585 11.9453 0.394085L12.3653 0.412418C13.5562 0.468252 14.7462 0.564919 15.337 0.729085C16.1245 0.950752 16.7428 1.59575 16.952 2.41409C17.2853 3.71409 17.327 6.24909 17.332 6.86325L17.3328 6.98992V7.13492C17.327 7.74909 17.2853 10.2849 16.952 11.5841C16.7403 12.4049 16.1212 13.0508 15.337 13.2691C14.7462 13.4333 13.5562 13.5299 12.3653 13.5858L11.9453 13.6049C10.762 13.6516 9.64866 13.6633 9.20366 13.6649L9.00783 13.6658H8.79533C7.85366 13.6599 3.91533 13.6174 2.66199 13.2691C1.87533 13.0474 1.25616 12.4024 1.04699 11.5841C0.713659 10.2841 0.671992 7.74909 0.666992 7.13492V6.86325C0.671992 6.24909 0.713659 3.71325 1.04699 2.41409C1.25866 1.59325 1.87783 0.947419 2.66283 0.729918C3.91533 0.380752 7.85449 0.338252 8.79616 0.333252H9.20366ZM7.33283 4.08325V9.91659L12.3328 6.99992L7.33283 4.08325Z" fill="white"/>
</svg>
